<svg width="18" height="18" viewBox="0 0 18 18" fill="none" xmlns="http://www.w3.org/2000/svg">
<path fill-rule="evenodd" clip-rule="evenodd" d="M4 18H15C16.6569 18 18 16.6569 18 15V4C18 2.89543 17.1046 2 16 2H14C14 0.89543 13.1046 0 12 0H2C0.89543 0 0 0.89543 0 2V14C0 16.2091 1.79086 18 4 18ZM12 2V15C12 15.3506 12.0602 15.6872 12.1707 16H4C2.89543 16 2 15.1046 2 14V2H12ZM5 12H9C9.55229 12 10 12.4477 10 13C10 13.5523 9.55229 14 9 14H5C4.44772 14 4 13.5523 4 13C4 12.4477 4.44772 12 5 12ZM9 8H5C4.44772 8 4 8.44771 4 9C4 9.55229 4.44772 10 5 10H9C9.55229 10 10 9.55229 10 9C10 8.44771 9.55229 8 9 8ZM5 4H9C9.55229 4 10 4.44772 10 5C10 5.55228 9.55229 6 9 6H5C4.44772 6 4 5.55228 4 5C4 4.44772 4.44772 4 5 4ZM15 16C14.4477 16 14 15.5523 14 15V4H16V15C16 15.5523 15.5523 16 15 16Z" fill="#A7B7C7"/>
</svg>
