<svg width="18" height="20" viewBox="0 0 18 20" fill="none" xmlns="http://www.w3.org/2000/svg">
<path fill-rule="evenodd" clip-rule="evenodd" d="M16 14V8C17.1046 8 18 7.10457 18 6V5C18 4.62123 17.786 4.27496 17.4472 4.10557L9.44721 0.105573C9.16569 -0.0351909 8.83431 -0.0351909 8.55279 0.105573L0.552786 4.10557C0.214002 4.27496 0 4.62123 0 5V6C0 7.10457 0.89543 8 2 8V14C0.89543 14 0 14.8954 0 16V18C0 19.1046 0.89543 20 2 20H16C17.1046 20 18 19.1046 18 18V16C18 14.8954 17.1046 14 16 14ZM8 8H10V14H8V8ZM14 8H12V14H14V8ZM4 8H6V14H4V8ZM2 5.61803V6H16V5.61803L9 2.11803L2 5.61803ZM2 18V16H16V18H2Z" fill="#A7B7C7"/>
</svg>
