<svg width="20" height="20" viewBox="0 0 20 20" fill="none" xmlns="http://www.w3.org/2000/svg">
<path fill-rule="evenodd" clip-rule="evenodd" d="M7 10C4.23858 10 2 7.76142 2 5C2 2.23858 4.23858 0 7 0C9.76142 0 12 2.23858 12 5C12 7.76142 9.76142 10 7 10ZM7 8C8.65685 8 10 6.65685 10 5C10 3.34315 8.65685 2 7 2C5.34315 2 4 3.34315 4 5C4 6.65685 5.34315 8 7 8ZM13 20C13.5523 20 14 19.5523 14 19V17C14 14.2386 11.7614 12 9 12H5C2.23858 12 0 14.2386 0 17V19C0 19.5523 0.447715 20 1 20C1.55228 20 2 19.5523 2 19V17C2 15.3431 3.34315 14 5 14H9C10.6569 14 12 15.3431 12 17V19C12 19.5523 12.4477 20 13 20ZM15 14C16.6569 14 18 15.3431 18 17V19C18 19.5523 18.4477 20 19 20C19.5523 20 20 19.5523 20 19V17C20 14.2386 17.7614 12 15 12C14.4477 12 14 12.4477 14 13C14 13.5523 14.4477 14 15 14ZM18 5C18 7.76142 15.7614 10 13 10C12.4477 10 12 9.55229 12 9C12 8.44771 12.4477 8 13 8C14.6569 8 16 6.65685 16 5C16 3.34315 14.6569 2 13 2C12.4477 2 12 1.55228 12 1C12 0.447715 12.4477 0 13 0C15.7614 0 18 2.23858 18 5Z" fill="#A7B7C7"/>
</svg>
