<svg width="20" height="20" viewBox="0 0 20 20" fill="none" xmlns="http://www.w3.org/2000/svg">
<path fill-rule="evenodd" clip-rule="evenodd" d="M10 20C4.47715 20 0 15.5228 0 10C0 4.47715 4.47715 0 10 0C15.5228 0 20 4.47715 20 10C20 15.5228 15.5228 20 10 20ZM3.68014 5.09436C2.81999 6.20088 2.24404 7.53929 2.06189 9H3C3.55228 9 4 9.44771 4 10C4 10.5523 3.55228 11 3 11H2.06189C2.22234 12.2867 2.68833 13.4784 3.38496 14.5004C4.91328 13.1513 6.85714 12.2621 9 12.0494V7C9 6.44771 9.44771 6 10 6C10.5523 6 11 6.44771 11 7V12.0494C13.1429 12.2621 15.0867 13.1513 16.615 14.5004C17.3117 13.4784 17.7777 12.2867 17.9381 11H17C16.4477 11 16 10.5523 16 10C16 9.44771 16.4477 9 17 9H17.9381C17.756 7.53929 17.18 6.20088 16.3199 5.09436L15.6569 5.75736C15.2663 6.14788 14.6332 6.14788 14.2426 5.75736C13.8521 5.36684 13.8521 4.73367 14.2426 4.34315L14.9056 3.68014C13.7991 2.81999 12.4607 2.24404 11 2.06189V3C11 3.55228 10.5523 4 10 4C9.44771 4 9 3.55228 9 3V2.06189C7.53929 2.24404 6.20088 2.81999 5.09436 3.68014L5.75736 4.34315C6.14788 4.73367 6.14788 5.36684 5.75736 5.75736C5.36684 6.14788 4.73367 6.14788 4.34315 5.75736L3.68014 5.09436ZM10 18C7.97111 18 6.11862 17.2447 4.70835 16C6.11862 14.7553 7.97111 14 10 14C12.0289 14 13.8814 14.7553 15.2916 16C13.8814 17.2447 12.0289 18 10 18Z" fill="#A7B7C7"/>
</svg>
