<svg width="18" height="20" viewBox="0 0 18 20" fill="none" xmlns="http://www.w3.org/2000/svg">
<path fill-rule="evenodd" clip-rule="evenodd" d="M10 15V3.41421L13.2929 6.70711C13.6834 7.09763 14.3166 7.09763 14.7071 6.70711C15.0976 6.31658 15.0976 5.68342 14.7071 5.29289L9.70711 0.292893C9.31658 -0.0976311 8.68342 -0.0976311 8.29289 0.292893L3.29289 5.29289C2.90237 5.68342 2.90237 6.31658 3.29289 6.70711C3.68342 7.09763 4.31658 7.09763 4.70711 6.70711L8 3.41421V15C8 15.5523 8.44771 16 9 16C9.55229 16 10 15.5523 10 15ZM1 14C0.447715 14 0 14.4477 0 15V18C0 19.1046 0.89543 20 2 20H16C17.1046 20 18 19.1046 18 18V15C18 14.4477 17.5523 14 17 14C16.4477 14 16 14.4477 16 15V18H2V15C2 14.4477 1.55228 14 1 14Z" fill="#A7B7C7"/>
</svg>
