<svg width="18" height="18" viewBox="0 0 18 18" fill="none" xmlns="http://www.w3.org/2000/svg">
<path fill-rule="evenodd" clip-rule="evenodd" d="M2 0H16C17.1046 0 18 0.89543 18 2V16C18 17.1046 17.1046 18 16 18H2C0.89543 18 0 17.1046 0 16V2C0 0.89543 0.89543 0 2 0ZM2 10V16H16V10H13.618L12.1708 12.8944C11.832 13.572 11.1395 14 10.382 14H7.61803C6.86049 14 6.16796 13.572 5.82918 12.8944L4.38197 10H2ZM16 2V8H13.618C12.8605 8 12.168 8.428 11.8292 9.10557L10.382 12H7.61803L6.17082 9.10557C5.83204 8.428 5.13951 8 4.38197 8H2V2H16Z" fill="#A7B7C7"/>
</svg>
