<svg width="18" height="20" viewBox="0 0 18 20" fill="none" xmlns="http://www.w3.org/2000/svg">
<path fill-rule="evenodd" clip-rule="evenodd" d="M8 1V12.5858L4.70711 9.29289C4.31658 8.90237 3.68342 8.90237 3.29289 9.29289C2.90237 9.68342 2.90237 10.3166 3.29289 10.7071L8.29289 15.7071C8.68342 16.0976 9.31658 16.0976 9.70711 15.7071L14.7071 10.7071C15.0976 10.3166 15.0976 9.68342 14.7071 9.29289C14.3166 8.90237 13.6834 8.90237 13.2929 9.29289L10 12.5858V1C10 0.447715 9.55229 0 9 0C8.44771 0 8 0.447715 8 1ZM1 14C0.447715 14 0 14.4477 0 15V18C0 19.1046 0.89543 20 2 20H16C17.1046 20 18 19.1046 18 18V15C18 14.4477 17.5523 14 17 14C16.4477 14 16 14.4477 16 15V18H2V15C2 14.4477 1.55228 14 1 14Z" fill="#A7B7C7"/>
</svg>
