<svg width="20" height="18" viewBox="0 0 20 18" fill="none" xmlns="http://www.w3.org/2000/svg">
<path fill-rule="evenodd" clip-rule="evenodd" d="M6 1C6 0.447715 5.55228 0 5 0H2C0.89543 0 0 0.89543 0 2V16C0 17.1046 0.89543 18 2 18H5C5.55228 18 6 17.5523 6 17C6 16.4477 5.55228 16 5 16H2V2H5C5.55228 2 6 1.55228 6 1ZM19 8H7.41421L10.7071 4.70711C11.0976 4.31658 11.0976 3.68342 10.7071 3.29289C10.3166 2.90237 9.68342 2.90237 9.29289 3.29289L4.29289 8.29289C3.90237 8.68342 3.90237 9.31658 4.29289 9.70711L9.29289 14.7071C9.68342 15.0976 10.3166 15.0976 10.7071 14.7071C11.0976 14.3166 11.0976 13.6834 10.7071 13.2929L7.41421 10H19C19.5523 10 20 9.55229 20 9C20 8.44771 19.5523 8 19 8Z" fill="#A7B7C7"/>
</svg>
