<svg width="20" height="20" viewBox="0 0 20 20" fill="none" xmlns="http://www.w3.org/2000/svg">
<path fill-rule="evenodd" clip-rule="evenodd" d="M13 20C11.8954 20 11 19.1046 11 18V13H9V18C9 19.1046 8.10457 20 7 20H4C2.89543 20 2 19.1046 2 18V10.4142L1.70711 10.7071C1.31658 11.0976 0.683418 11.0976 0.292893 10.7071C-0.0976311 10.3166 -0.0976311 9.68342 0.292893 9.29289L9.29289 0.292893C9.48816 0.0976311 9.74408 0 10 0C10.2559 0 10.5118 0.0976311 10.7071 0.292893L19.7071 9.29289C20.0976 9.68342 20.0976 10.3166 19.7071 10.7071C19.3166 11.0976 18.6834 11.0976 18.2929 10.7071L18 10.4142V18C18 19.1046 17.1046 20 16 20H13ZM16 18V8.41421L10 2.41421L4 8.41421V18H7V13C7 11.8954 7.89543 11 9 11H11C12.1046 11 13 11.8954 13 13V18H16Z" fill="#149ED4"/>
</svg>
