<svg width="20" height="20" viewBox="0 0 20 20" fill="none" xmlns="http://www.w3.org/2000/svg">
<path fill-rule="evenodd" clip-rule="evenodd" d="M1.99987 19V14H9.0852L9.79226 14.7071C9.97978 14.8946 10.2341 15 10.4993 15H18.9988C19.7421 15 20.2256 14.2177 19.8931 13.5528L17.1169 8L19.8931 2.44721C20.2256 1.78231 19.7421 1 18.9988 1H10.9135L10.2064 0.292893C10.0189 0.105357 9.76459 0 9.49939 0H0.999936C0.447686 0 0 0.447715 0 1V19C0 19.5523 0.447686 20 0.999936 20C1.55218 20 1.99987 19.5523 1.99987 19ZM1.99987 2H8.99942V7C8.99942 7.55228 9.44711 8 9.99936 8C10.5516 8 10.9993 7.55228 10.9993 7V3H17.3808L15.1046 7.55279C14.9638 7.83431 14.9638 8.16569 15.1046 8.44721L17.3808 13H10.9135L10.2064 12.2929C10.0189 12.1054 9.76459 12 9.49939 12H1.99987V2Z" fill="#A7B7C7"/>
</svg>
