<svg width="20" height="20" viewBox="0 0 20 20" fill="none" xmlns="http://www.w3.org/2000/svg">
<path fill-rule="evenodd" clip-rule="evenodd" d="M7 5.58579L5.70772 4.29351C6.24042 3.17838 6.04496 1.80232 5.12132 0.87868C3.94975 -0.292893 2.05025 -0.292893 0.87868 0.87868C-0.292893 2.05025 -0.292893 3.94975 0.87868 5.12132C1.80232 6.04496 3.17838 6.24042 4.29351 5.70772L5.58579 7L4.29351 8.29228C3.17838 7.75958 1.80232 7.95504 0.87868 8.87868C-0.292893 10.0503 -0.292893 11.9497 0.87868 13.1213C2.05025 14.2929 3.94975 14.2929 5.12132 13.1213C6.04496 12.1977 6.24042 10.8216 5.70772 9.70649L7 8.41421L11.2929 12.7071C11.6834 13.0976 12.3166 13.0976 12.7071 12.7071C13.0976 12.3166 13.0976 11.6834 12.7071 11.2929L8.41421 7L12.7071 2.70711C13.0976 2.31658 13.0976 1.68342 12.7071 1.29289C12.3166 0.902369 11.6834 0.902369 11.2929 1.29289L7 5.58579ZM20 7C20 6.44772 19.5523 6 19 6H18C17.4477 6 17 6.44772 17 7C17 7.55228 17.4477 8 18 8C18 8.55229 18.4477 9 19 9C19.5523 9 20 8.55229 20 8V7ZM2 18C2.55228 18 3 18.4477 3 19C3 19.5523 2.55228 20 2 20H1C0.447715 20 0 19.5523 0 19V18C0 17.4477 0.447715 17 1 17C1.55228 17 2 17.4477 2 18ZM18 20H19C19.5523 20 20 19.5523 20 19V18C20 17.4477 19.5523 17 19 17C18.4477 17 18 17.4477 18 18C17.4477 18 17 18.4477 17 19C17 19.5523 17.4477 20 18 20ZM12 6H14C14.5523 6 15 6.44772 15 7C15 7.55228 14.5523 8 14 8H12C11.4477 8 11 7.55228 11 7C11 6.44772 11.4477 6 12 6ZM20 12C20 11.4477 19.5523 11 19 11C18.4477 11 18 11.4477 18 12V14C18 14.5523 18.4477 15 19 15C19.5523 15 20 14.5523 20 14V12ZM12 18H14C14.5523 18 15 18.4477 15 19C15 19.5523 14.5523 20 14 20H12C11.4477 20 11 19.5523 11 19C11 18.4477 11.4477 18 12 18ZM9 19C9 18.4477 8.55229 18 8 18H6C5.44772 18 5 18.4477 5 19C5 19.5523 5.44772 20 6 20H8C8.55229 20 9 19.5523 9 19ZM3.70711 11.7071C4.09763 11.3166 4.09763 10.6834 3.70711 10.2929C3.31658 9.90237 2.68342 9.90237 2.29289 10.2929C1.90237 10.6834 1.90237 11.3166 2.29289 11.7071C2.68342 12.0976 3.31658 12.0976 3.70711 11.7071ZM4 3C4 3.55228 3.55228 4 3 4C2.44772 4 2 3.55228 2 3C2 2.44772 2.44772 2 3 2C3.55228 2 4 2.44772 4 3Z" fill="#A7B7C7"/>
</svg>
