<svg width="20" height="20" viewBox="0 0 20 20" fill="none" xmlns="http://www.w3.org/2000/svg">
<path fill-rule="evenodd" clip-rule="evenodd" d="M11 19V14H11.5858L15.5858 18H18C19.1046 18 20 17.1046 20 16V2C20 0.89543 19.1046 0 18 0H15.5858L11.5858 4H4C2.89543 4 2 4.89543 2 6C0.89543 6 0 6.89543 0 8V10C0 11.1046 0.89543 12 2 12C2 13.1046 2.89543 14 4 14L7 20H10C10.5523 20 11 19.5523 11 19ZM12.4142 12H11V6H12.4142L16.4142 2H18V16H16.4142L12.4142 12ZM9 12V6H4V8H2V10H4V12H9ZM6.23607 14H9V18H8.23607L6.23607 14Z" fill="#A7B7C7"/>
</svg>
